<svg width="1744" height="1730" viewBox="0 0 1744 1730" fill="none" xmlns="http://www.w3.org/2000/svg">
<path d="M1084.91 1078.72C985.843 1375.63 721.203 1467.32 581.27 1098.54C562.027 1047.83 612.342 1028.95 647.529 1006.63C671.631 991.348 684.292 978.093 682.823 964.426C675.896 899.951 645.902 720.572 645.902 720.572L642.852 714.793C642.852 714.793 643.583 713.173 640.712 716.038C637.719 719.025 630.818 750.214 603.621 750.214C579.237 750.214 554.482 739.314 542.636 663.886C538.348 636.589 540.781 565.025 570.989 552.102C583.471 546.763 594.987 544.854 606.222 551.263C617.456 557.671 593.26 529.357 718.209 425.232C799.427 357.549 927.717 347.629 979.483 359.057C1031.25 370.484 1083.02 395.824 1105.91 449.483C1133.69 514.593 1080.03 563.759 1091.82 712.042C1089.67 765.617 1092.74 883.198 945.313 922.607C917.313 930.093 926 971 968 981C1035 1002 1084.96 1053.27 1084.96 1078.86" fill="white"/>
<path fill-rule="evenodd" clip-rule="evenodd" d="M1084.94 617.2L1085.1 615.806C1089.24 579.399 1093.26 544.118 1112.24 512.429C1118.7 516.85 1117.95 522.452 1115.93 527.643C1096.01 578.846 1097.84 632.04 1099.67 685.206C1099.83 689.863 1099.99 694.519 1100.14 699.174C1102.22 765.601 1085.65 825.988 1041.35 876.736C1025.98 894.348 1005.63 906.464 984.854 917.045C963.515 927.912 959.03 937.132 965.687 960.599C965.93 961.455 966.229 962.315 966.529 963.178C967.892 967.1 969.273 971.073 965.487 974.95C960.965 979.58 956.026 978.259 950.682 976.83C950.48 976.776 950.277 976.721 950.074 976.667C899.733 963.241 854.697 939.154 813.056 908.393C807.139 904.023 802.272 898.061 797.561 892.29L797.561 892.29L797.256 891.916C794.776 888.879 794.338 884.141 797.807 881.462C801.054 878.955 803.609 881.011 806.452 883.298C806.815 883.59 807.182 883.886 807.556 884.176C830.027 901.614 854.773 913.063 883.768 915.943C897.176 917.276 910.448 916.784 923.708 916.293H923.708H923.709C931.17 916.017 938.626 915.741 946.101 915.79C956.34 915.857 964.752 911.107 972.761 906.584C973.712 906.047 974.658 905.513 975.601 904.99C1003.45 889.545 1029.88 872.229 1047.84 844.331C1063.92 819.331 1073.66 792.1 1079.4 763.443C1086.65 727.27 1085.99 690.701 1085.32 653.621C1085.11 641.536 1084.89 629.397 1084.94 617.2ZM581.684 541.824C603.577 540.064 615.771 553.033 626.037 568.053C638.664 586.526 645.39 607.465 648.37 629.572C648.87 633.28 649.389 637.223 647.152 640.856C642.737 641.45 642.319 637.946 642.252 635.317C641.696 614.644 632.526 596.61 623.308 579.156C616.73 566.704 607.059 554.64 591.943 551.577C574.71 548.084 558.858 563.566 551.067 583.842C536.636 621.398 539.029 658.36 552.455 694.759C558.33 710.687 565.648 726.913 580.303 738.026C595.142 749.28 613.008 747.295 623.903 732.349C624.526 731.495 625.184 730.649 625.845 729.801L625.845 729.801L625.845 729.801C627.841 727.238 629.853 724.656 630.928 721.749C633.035 716.049 636.256 710.629 642.155 711.423C648.978 712.342 650.271 719.729 650.909 725.499C656.707 777.928 664.758 830.024 672.81 882.126L672.81 882.126C674.808 895.053 676.806 907.981 678.769 920.913C681.369 938.023 684.381 962.598 682.361 973.05C682.219 973.792 682.136 974.523 682.057 975.222C681.749 977.958 681.496 980.21 677.906 980.75C673.034 981.484 670.831 978.66 670.233 974.28C667.913 957.274 667.273 950.747 666.275 924.735C665.308 899.519 660.569 874.665 655.83 849.816L655.83 849.815C654.111 840.8 652.392 831.785 650.853 822.753C645.613 791.996 640.483 760.802 640.022 725.777C639.326 726.808 638.644 727.825 637.974 728.826C630.426 740.096 624.264 749.295 613.48 752.877C595.58 758.827 579.917 754.422 567.371 740.277C553.071 724.155 543.783 705.808 538.558 684.498C530.244 650.587 528.704 617.368 539.487 583.853C544.655 567.774 563.189 539.208 581.684 541.824ZM616.346 669.326C620.716 672.467 624.679 675.316 628.334 663.948C627.158 621.652 613.6 594.654 592.472 593.632C603.747 608.197 614.559 622.413 615.472 642.132C610.742 639.978 607.7 636.59 604.784 633.342C602.753 631.08 600.783 628.886 598.348 627.226C597.31 626.519 596.295 625.736 595.271 624.946C590.544 621.301 585.636 617.516 577.471 620.357C581.3 626.187 586.575 630.302 591.799 634.377C597.832 639.084 603.798 643.738 607.392 650.919C596.777 658.561 592.209 668.62 597.718 680.761C602.497 691.296 609.565 700 623.565 700.635C623.042 694.311 618.868 689.708 614.812 685.235C609.879 679.796 605.121 674.55 607.316 666.635C610.515 665.134 613.516 667.291 616.346 669.326Z" fill="black"/>
<path d="M1482.4 1613.54L178.7 1610.24C178.7 1610.24 212.136 1400.54 274.9 1281.32C347.909 1142.64 448.519 1015.29 674.895 961.017C683.924 958.853 771.016 1005.32 803.259 1021.27C818.204 1028.67 880.444 1024.19 880.444 1024.19L991.244 969.347C991.244 969.347 1121.58 1011.33 1187.76 1048.56C1271.96 1095.93 1367.03 1235.7 1410.82 1344.6C1457.36 1460.36 1482.4 1613.54 1482.4 1613.54Z" fill="white"/>
<path d="M809.38 1613.54C809.38 1613.54 807.634 1486.14 808.975 1443.7C811.016 1379.11 828.519 1159.61 828.519 1159.61C828.519 1159.61 845.288 1164.31 854.019 1162.42C859.519 1161.24 884.536 1150.68 884.536 1150.68C884.536 1150.68 928.894 1257.16 938.118 1294.38C953.677 1357.15 971.404 1550.92 971.404 1550.92L974.156 1613.54L809.38 1613.54Z" fill="black"/>
<path fill-rule="evenodd" clip-rule="evenodd" d="M1458.57 1535.95C1464.13 1561.82 1469.68 1587.71 1476.05 1613.54C1480.67 1613.54 1484.22 1613.54 1487.43 1612.62C1481.74 1592.42 1478.7 1572.09 1475.69 1551.89L1475.69 1551.89L1475.69 1551.89L1475.69 1551.88L1475.69 1551.88L1475.69 1551.88L1475.69 1551.88L1475.69 1551.88L1475.69 1551.88L1475.69 1551.88V1551.87C1473.74 1538.79 1471.79 1525.75 1469.13 1512.83C1462.9 1482.51 1455.92 1452.38 1447.11 1422.9C1437.08 1389.29 1425.66 1355.97 1411.82 1323.56C1397.51 1290.06 1382.65 1256.78 1363.56 1225.79C1337.44 1183.27 1307.56 1143.17 1274.28 1105.98C1236.72 1064.11 1188.88 1037.5 1139.57 1014.58C1105.42 998.707 1070.56 982.929 1034.27 971.886C1008.7 964.108 982.243 959.54 955.243 959.675C949.323 959.704 946.023 963.345 949.784 967.283C958.024 975.91 952.157 979.101 946.473 982.194C945.884 982.514 945.298 982.833 944.729 983.157C942.358 984.508 939.994 985.887 937.628 987.267C928.273 992.724 918.879 998.204 908.887 1002.06C904.202 1003.86 899.715 1006.35 895.238 1008.83C886.563 1013.63 877.925 1018.41 867.949 1018.21C860.974 1018.07 854.032 1018.29 847.096 1018.5C842.211 1018.65 837.329 1018.8 832.44 1018.83C825.246 1018.88 818.106 1017.59 811.382 1015.03C798.124 1010.14 785.99 1003.14 773.846 996.145L773.845 996.145C765.031 991.066 756.212 985.983 746.954 981.697C743.121 979.924 739.264 978.18 735.402 976.434C716.617 967.943 697.715 959.398 680.916 947.097C675.748 943.313 670.716 945.316 666.548 947.887C652.023 956.848 636.13 962.468 620.191 968.105C606.252 973.034 592.278 977.975 579.154 985.174C551.928 1000.11 523.607 1013.54 495.369 1026.87C442.898 1051.65 400.741 1090.03 362.632 1133.35C341.605 1157.13 322.559 1182.6 305.685 1209.5C285.71 1241.46 267.93 1274.75 252.467 1309.13C240.834 1335.04 230.767 1361.56 221.634 1388.46L221.275 1389.52L220.515 1391.76L220.475 1391.87L220.444 1391.96C213.056 1413.7 205.678 1435.41 200.434 1457.81C198.76 1464.96 196.923 1472.07 195.087 1479.19L195.087 1479.19C192.051 1490.95 189.016 1502.71 186.716 1514.62C180.368 1547.48 175.1 1580.55 170.5 1613.53C176.847 1613.53 182.073 1613.53 187.614 1612.46C188.904 1604.14 190.029 1595.92 191.142 1587.77C193.312 1571.9 195.438 1556.34 198.666 1541.02C199.552 1536.81 200.429 1532.6 201.306 1528.39L201.307 1528.39C207.677 1497.82 214.048 1467.24 223.943 1437.44C224.826 1434.78 225.707 1432.12 226.588 1429.46C236.083 1400.8 245.582 1372.13 257.161 1344.29C268.713 1316.53 282.036 1289.56 296.313 1262.93C325.356 1208.77 360.415 1159.39 403.264 1115.43C434.849 1083.03 470.831 1056.43 511.531 1036.93C513.825 1035.83 516.153 1034.53 518.523 1033.22C527.742 1028.09 537.597 1022.62 548.58 1026.86C571.043 1035.54 593.484 1044.7 614.804 1055.83C643.599 1070.85 671.927 1086.77 700.253 1102.69L700.253 1102.69L700.254 1102.69L700.254 1102.69L700.255 1102.7L700.255 1102.7L700.257 1102.7C709.074 1107.65 717.891 1112.61 726.721 1117.54L727.178 1117.79C747.01 1128.86 747.021 1128.87 759.648 1110.25C759.776 1110.06 760.043 1109.97 760.36 1109.85C760.523 1109.8 760.7 1109.73 760.877 1109.65C770.336 1113.75 778.734 1119.62 787.143 1125.5L787.143 1125.5C791.891 1128.82 796.642 1132.14 801.589 1135.14C822.028 1147.56 823.924 1152.56 816.216 1173.7C811.728 1186.01 807.365 1198.37 803.002 1210.72C797.221 1227.1 791.44 1243.47 785.367 1259.73C769.51 1302.21 755.784 1345.32 745.401 1389.43C740.191 1411.57 744.582 1419.59 765.121 1430.44C769.941 1432.99 774.808 1435.45 779.674 1437.91L779.678 1437.91C784.986 1440.59 790.294 1443.27 795.541 1446.07C800.789 1448.87 803.767 1453.13 803.167 1459.59C799.483 1499.03 798.234 1538.56 798.043 1578.17C798.013 1584.39 797.289 1590.6 796.564 1596.82C795.915 1602.39 795.265 1607.96 795.117 1613.53H809.378C815.177 1558.95 817.039 1504.17 818.805 1449.33C819.692 1421.8 821.775 1394.32 823.859 1366.83L823.859 1366.82C825.052 1351.08 826.246 1335.33 827.214 1319.58C827.955 1307.53 828.139 1295.45 828.323 1283.37C828.599 1265.23 828.875 1247.08 831.042 1229C832.76 1214.67 834.128 1200.29 835.535 1185.51L835.536 1185.51L835.536 1185.51L835.536 1185.5L835.536 1185.5L835.537 1185.49C836.178 1178.76 836.826 1171.95 837.519 1165.02C854.425 1171.93 867.94 1165.28 880.884 1157.05C888.09 1162.99 891.096 1171.06 893.979 1178.8C894.77 1180.93 895.553 1183.03 896.411 1185.05C910.036 1217.25 918.872 1251.01 927.418 1284.95C931.974 1303.05 936.476 1321.08 939.605 1339.44C940.044 1342.02 940.484 1344.59 940.923 1347.17L940.991 1347.56C946.951 1382.47 952.909 1417.37 957.054 1452.59C960.827 1484.67 962.922 1516.87 965.018 1549.06L965.018 1549.06L965.018 1549.06L965.018 1549.06L965.019 1549.06L965.019 1549.07L965.019 1549.07L965.019 1549.07C965.79 1560.92 966.561 1572.76 967.416 1584.61C967.662 1588.01 967.74 1591.43 967.819 1594.92V1594.92V1594.93C967.945 1600.51 968.076 1606.26 968.907 1612.43C973.787 1613.54 977.342 1613.54 981.215 1612.37C983.975 1546.74 976.222 1482.99 967.995 1419.28C967.452 1415.07 966.867 1410.87 966.283 1406.67C965.289 1399.52 964.295 1392.37 963.501 1385.19C961.275 1365.4 958.001 1345.74 953.692 1326.29C951.736 1317.39 949.162 1308.61 946.588 1299.84L946.588 1299.84C943.674 1289.91 940.762 1279.98 938.748 1269.87C935 1251.04 928.782 1233.15 922.448 1215.21C914.833 1193.65 906.156 1172.55 894.126 1152.99C892.279 1149.98 890.477 1145.87 894.534 1144.06C903.811 1139.91 911.134 1133.17 918.519 1126.37C925.262 1120.16 932.055 1113.91 940.434 1109.54C941.113 1111.05 941.736 1112.53 942.345 1113.98C943.63 1117.03 944.847 1119.92 946.375 1122.64C954.85 1137.7 959.252 1138.59 972.922 1127.92C981.067 1121.57 989.678 1115.91 998.298 1110.24L998.299 1110.24L998.299 1110.24C1007.76 1104.03 1017.22 1097.81 1026.09 1090.66C1038.11 1080.97 1051.24 1072.84 1064.38 1064.71C1078.99 1055.67 1093.62 1046.61 1106.77 1035.37C1130.76 1014.88 1168.79 1041.76 1214.55 1074.09L1215.21 1074.56C1258.61 1105.23 1291.14 1146.57 1321.15 1189.8C1342.4 1220.41 1360.25 1252.95 1377.04 1286.32C1393.74 1319.45 1407.95 1353.78 1419.57 1389.03C1431.22 1424.41 1441.89 1460.08 1450.03 1496.63C1452.95 1509.72 1455.76 1522.83 1458.57 1535.95ZM744.631 1098.91C742.425 1102.9 740.406 1105.15 735.797 1103.27C713.075 1092.44 691.36 1080.22 669.824 1068.09C635.066 1048.52 600.778 1029.22 563.488 1016.5C563.515 1011.4 565.88 1010.32 568.048 1009.32C568.155 1009.27 568.261 1009.22 568.367 1009.17C581.506 1003.17 594.249 996.341 606.52 988.721C613.318 984.28 621.246 981.882 629.366 981.812C649.313 981.736 669.335 981.487 687.435 970.859C692.198 968.062 696.982 969.524 701.851 972.324C707.151 975.375 712.434 978.457 717.718 981.539C739.783 994.41 761.852 1007.28 785.163 1017.89C789.75 1019.97 794.144 1022.54 796.844 1027.42C776.469 1048.93 758.923 1072.96 744.631 1098.91ZM1000.27 1091.37C1016.33 1077.55 1034.25 1066.34 1052.11 1055.16C1068.08 1045.18 1084.01 1035.21 1098.53 1023.43C1097.09 1019.21 1094.66 1017.47 1092.32 1015.78L1092.32 1015.78C1091.89 1015.47 1091.46 1015.17 1091.04 1014.85C1074.3 1002.04 1054.86 994.963 1035.47 987.91C1028.98 985.547 1022.49 983.187 1016.11 980.614C1006.93 976.914 995.715 972.929 984.233 979.305C979.584 981.888 974.956 984.516 970.325 987.144C950.353 998.481 930.354 1009.83 908.633 1017.72C901.993 1020.13 901.187 1023.3 905.35 1029.09C909.309 1034.59 913.078 1040.23 916.846 1045.87L916.846 1045.87L916.847 1045.87C921.263 1052.48 925.679 1059.09 930.4 1065.47C938.598 1076.56 947.112 1087.41 955.561 1098.17C959.198 1102.81 962.823 1107.43 966.406 1112.04C977.88 1105.18 988.379 1098.89 1000.27 1091.37V1091.37ZM818.414 1039.52C823.857 1035.26 829.899 1032.19 837.214 1033.2V1033.2C861.611 1029.75 881.293 1035.2 898.7 1049.3C910.707 1059.03 911.388 1065.94 902.107 1078.35C899.912 1081.28 898.125 1084.51 896.345 1087.72C893.273 1093.27 890.223 1098.77 885.133 1102.67C867.438 1093.07 849.806 1090.63 831.794 1101.23C826.427 1104.39 822.373 1102.65 818.327 1098.52C812.892 1092.97 807.314 1087.56 801.736 1082.15L801.719 1082.13L801.71 1082.12L801.709 1082.12L801.708 1082.12C799.093 1079.58 796.478 1077.04 793.878 1074.49C788.048 1068.77 786.195 1064.01 794.895 1058.42C800.191 1055.01 804.999 1050.86 809.812 1046.71C812.644 1044.27 815.478 1041.82 818.414 1039.52ZM794.132 1428.83L794.132 1428.83C797.161 1430.46 800.435 1432.22 805.252 1432.2C806.112 1412.95 806.873 1393.7 807.633 1374.46L807.633 1374.45L807.633 1374.44C809.621 1324.1 811.608 1273.79 815.387 1223.48C810.711 1233.63 807.028 1243.99 803.362 1254.3L803.36 1254.3L803.359 1254.3L803.358 1254.31C801.595 1259.27 799.836 1264.21 797.973 1269.12C781.9 1311.44 769.55 1354.85 758.935 1398.81C757.37 1405.3 757.598 1410.71 764.089 1414.1C771.897 1418.18 779.817 1422.04 789.452 1426.67V1426.67C791.066 1427.18 792.566 1427.98 794.132 1428.83ZM852.648 1107.51C858.095 1106.34 863.769 1106.89 868.89 1109.08C881.998 1121.84 883.58 1131.77 875.518 1141.15C864.397 1154.09 847.397 1157.96 836.097 1150C827.513 1143.96 826.164 1134.73 828.813 1126.05C832.166 1115.07 841.748 1109.58 852.648 1107.51ZM811.09 1124.87C821.442 1123.59 816.431 1116.25 813.896 1113.75C804.984 1104.98 795.599 1096.69 785.473 1087.74L785.469 1087.74C781.733 1084.44 777.897 1081.05 773.946 1077.51C773.266 1082.32 771.049 1085.49 768.817 1088.68C767.495 1090.57 766.169 1092.46 765.152 1094.71L765.419 1094.89L765.426 1094.89C780.456 1104.83 795.071 1114.5 811.092 1124.87L811.09 1124.87ZM905.61 1099.91C906.928 1098.31 908.246 1096.71 909.577 1095.12L909.579 1095.11C910.573 1093.51 911.459 1091.97 912.305 1090.49C914.87 1086.02 917.062 1082.19 920.736 1079.54C933.158 1091.77 933.166 1096.34 921.212 1105.69C920.006 1106.63 918.763 1107.54 917.521 1108.44C914.657 1110.54 911.794 1112.63 909.377 1115.15C905.8 1118.88 902.29 1122.38 896.677 1124.4C891.357 1119.96 892.01 1115.63 896.425 1110.73C899.591 1107.22 902.6 1103.56 905.61 1099.91Z" fill="black"/>
<path d="M1291.73 1613.54C1282.42 1576.74 1279.39 1538.93 1269.33 1502.48C1261.58 1474.41 1255.34 1445.78 1245.29 1418.55C1238.16 1399.2 1231.38 1379.53 1221.94 1360.88C1209.24 1335.82 1198.64 1309.7 1187.28 1283.97C1185.99 1281.04 1184.25 1277.61 1188.53 1275.03C1192.95 1272.38 1196.06 1274.64 1198.43 1277.76C1202.53 1283.16 1206.98 1288.55 1209.79 1294.64C1219.19 1314.92 1228.99 1335.06 1238.65 1355.18C1253.46 1385.98 1263.37 1418.35 1272.79 1450.75C1281.96 1482.32 1290.48 1514.22 1294.55 1547.2C1297.2 1568.62 1301.68 1589.85 1303.26 1612.51C1299.9 1613.54 1296.35 1613.54 1291.73 1613.54Z" fill="black"/>
<path d="M388.077 1613.54C389.492 1605.64 388.562 1597.49 388.66 1589.44C389.16 1548.57 394.822 1508.29 400.935 1467.94C406.714 1430.25 414.905 1392.97 425.455 1356.33C432.892 1330.32 444.893 1305.7 460.044 1282.93C462.081 1279.87 464.302 1277.08 468.182 1279.22C471.704 1281.17 471.82 1284.74 470.454 1288.22C467.343 1296.14 464.672 1304.29 460.854 1311.86C442.354 1348.59 434.681 1388.42 425.824 1428.08C421.411 1447.84 415.655 1467.26 412.005 1487.3C408.791 1504.95 405.718 1522.62 406.105 1540.37C406.619 1564.26 401.176 1587.71 402.394 1612.54C397.951 1613.54 393.562 1613.54 388.077 1613.54Z" fill="black"/>
<path d="M523.608 418.775C538.044 409.416 553.83 405.392 568.663 399.39C584.405 393.021 594.354 381.798 602.663 368.153C628.263 326.113 657.763 286.935 689.958 249.785C718.41 216.955 753.334 195.065 795.702 183.361C843.655 170.114 890.302 169.594 938.311 183.511C960.735 190.011 981.143 198.511 1000.45 211.219C1017.12 222.187 1029.71 237.154 1041.29 252.55C1049.53 263.511 1060.14 269.564 1071.53 274.191C1106.74 288.491 1139.36 307.029 1168.41 331.391C1199.53 357.484 1228.71 385.909 1244.15 424.386C1259.9 463.65 1272.03 504.033 1256.11 546.724C1246.06 573.698 1236.33 600.724 1211.73 618.97C1191.17 634.227 1187.63 657.502 1184.09 680.749C1182.57 690.742 1182.88 701.031 1178.82 710.691C1169.08 733.865 1149.88 745.591 1126.91 748.956C1095.1 753.616 1097.42 761.557 1092.45 724.878C1088.99 699.395 1088.86 673.241 1089.59 647.455C1091.28 588.373 1094.72 529.31 1079.82 471.201C1072.15 441.264 1057.74 414.319 1042.41 387.801C1040.27 384.088 1037.82 380.546 1035.5 376.895C1019.16 387.695 1011.75 402.025 1000.22 412.356C986.078 425.016 973.607 439.529 959.572 452.314C944.817 465.753 925.796 471.895 907.225 477.114C873.025 486.727 839.807 499.772 802.969 499.872C783.026 499.927 760.141 521.479 753.957 545.585C745.043 580.333 732.321 613.607 703.879 637.885C690.233 649.534 673.669 654.885 656.152 657.441C644.681 659.116 639.364 654.215 640.145 642.46C641.737 618.496 638.324 595.16 624.125 575.492C614.362 561.973 602.962 548.03 582.352 552.218C564.123 555.918 557.206 568.732 551.201 585.118C541.706 611.026 540.109 637.178 541.609 664.07C541.744 666.486 540.867 668.956 540.271 672.533C521.809 671.495 507.546 661.818 494.734 651.362C467.717 629.313 453.118 601.062 449.874 565.132C444.043 500.541 473.775 455.53 523.608 418.775Z" fill="black"/>
<path d="M602.286 741.701C617.744 733.112 629.256 721.383 639.402 707.977C646.383 712.393 648.611 717.684 649.23 724.425C651.791 752.325 651.537 780.489 656.725 808.151C657.975 814.819 658.987 821.593 660.992 828.044C664.592 839.615 659.858 845.833 649.026 848.806C630.637 853.853 606.426 837.606 606.357 819.521C593.189 822.455 579.747 821.041 567.685 816.964C547.311 810.077 544.703 794.742 559.325 778.827C545.125 773.821 530.077 770.927 520.664 756.748C515.647 749.192 517.623 743.015 520.756 736.477C523.565 730.334 530.308 727.015 536.889 728.535C553.458 732.393 572.055 727.998 586.551 740.881C590.515 744.403 596.329 742.895 602.286 741.701Z" fill="black"/>
<path d="M965.946 810.517C974.16 805.595 977.492 810.36 980.546 815.854C969.146 832.985 930.403 836.034 919.816 819.31C934.76 814.087 951.082 817.779 965.946 810.517Z" fill="black"/>
<path fill-rule="evenodd" clip-rule="evenodd" d="M1040.72 790.453C1054.15 773.042 1090.65 725.975 1090.65 725.975C1090.65 725.975 1104.61 776.366 1101.91 805.34C1101.21 812.931 1101.06 818.809 1100.94 823.772C1100.31 849.885 1100.29 850.703 1022.29 942.718C989.192 981.753 926.959 983.824 905.039 979.453C832.045 964.899 744.747 849.414 725.058 798.876C706.943 752.377 653 669 653 669L684.178 674C684.178 674 723.337 697.221 740.237 741.344C748.928 764.02 799.871 829.481 874.137 793.689C891.858 785.149 909.119 776.978 929.737 779.178L929.839 779.189C937.082 779.965 943.094 780.609 945.875 787.859C976.565 763.484 992.622 782.554 1008.13 800.97C1011.47 804.945 1014.79 808.889 1018.23 812.359C1027.8 809.175 1032.45 802.36 1036.95 795.755C1038.19 793.945 1039.41 792.152 1040.72 790.453ZM909.862 839.579C917.688 848.584 982.212 845.982 984.151 831.761H984.152C985.791 819.736 979.875 816.499 972.029 812.204C969.572 810.86 966.925 809.411 964.262 807.557C946.008 794.847 885.552 811.611 909.862 839.579Z" fill="black"/>
<path d="M911.218 719.687C916.294 711.556 921.752 715.405 927.818 717.497C942.161 722.441 956.459 728.461 971.798 719.22C979.317 714.691 987.285 711.02 987.406 701.062C987.493 693.879 972.459 681.507 963.262 680.68C956.484 680.07 949.624 680.404 942.802 680.231C938.88 680.131 934.568 679.775 933.677 675.115C932.83 670.685 936.171 668.293 939.851 666.515C961.706 655.948 1008.13 674.897 1002.66 706.772C1001.06 716.135 988.303 732.224 978.98 734.209C961.68 737.892 944.341 738.192 927.136 733.968C919.912 732.192 914.044 728.052 911.218 719.687Z" fill="black"/>
<path d="M1019.25 619.666C1032.3 619.995 1044.61 620.787 1056.86 622.182C1059.81 622.519 1061.78 625.505 1061.85 628.833C1061.91 632.161 1060.09 634.474 1057.12 635.774C1045.95 640.665 1035.1 644.074 1023.41 636.035C1016.94 631.58 1014.5 627.368 1019.25 619.666Z" fill="black"/>
<path d="M864.747 622.379C870.886 625.731 869.86 629.452 866.81 633.212C860.318 641.212 838.604 643.29 830.362 636.678C825.674 632.918 823.085 628.071 826.011 622.278C829.035 616.293 834.211 617.368 839.09 619.815C847.072 623.826 855.41 622.898 864.747 622.379Z" fill="black"/>
<path fill-rule="evenodd" clip-rule="evenodd" d="M936.086 558.28L936.091 558.28C988.115 558.625 1039.33 558.965 1090.54 559.379C1095.22 559.534 1099.88 559.946 1104.51 560.613C1111.63 561.461 1114.91 564.8 1116.49 572.645C1122.72 603.494 1119.29 633.659 1110.22 663.034C1104.76 680.708 1090.23 691.104 1072.67 696.575C1049.74 703.719 1026.22 708.951 1002.87 700.475C982.13 692.945 965.693 680.48 960.014 656.539C959.303 653.544 958.415 650.607 957.53 647.683L957.53 647.683C955.016 639.371 952.532 631.162 954.257 622.009C954.996 618.084 951.195 616.147 948.208 614.625L948.178 614.609C933.188 606.963 918.478 614.418 915.77 631.087C912.8 649.375 906.77 666.896 896.409 681.877C879.865 705.791 854.759 711.261 827.4 708.024C805.853 705.474 787.236 696.436 771.2 681.436C756.85 668.014 749.583 651.894 751.124 632.641C752.024 621.435 745.703 616.341 737.424 614.931C723.108 612.49 709.839 607.084 696.64 601.707L696.64 601.707C691.89 599.772 687.149 597.84 682.373 596.052C675.181 593.361 667.874 591.068 660.573 588.776L660.573 588.776C652.535 586.253 644.504 583.733 636.643 580.686C636.287 580.548 635.935 580.416 635.588 580.286L635.587 580.286C631.77 578.856 628.565 577.655 629.191 571.821C634.893 569.16 640.13 570.868 645.555 572.636C649.145 573.806 652.816 575.003 656.759 574.979C654.074 565.998 648.481 562.606 639.498 562.208C628.724 561.73 619.098 558.031 611.968 549.033C616.742 544.381 620.995 544.713 625.149 545.84C646.516 551.638 668.346 554.926 690.183 558.215C708.176 560.925 726.175 563.636 743.922 567.752C754.208 570.137 765.261 570.18 774.962 561.33C781.178 555.658 790.446 555.846 798.931 556.018C799.98 556.039 801.018 556.06 802.037 556.07C827.29 556.306 852.539 556.861 878.238 557.425L878.239 557.425C888.89 557.659 899.618 557.895 910.456 558.11C919.023 558.167 927.565 558.224 936.086 558.28ZM760.356 623.971C763.719 665.682 787.103 686.956 823.136 694.965C846.709 700.205 875.409 695.103 889.946 668.185C898.129 653.032 902.768 637.045 906.959 620.601C910.83 605.408 921.194 600.555 942.6 602.34C956.894 603.532 963.476 610.184 965.4 624.805C966.843 635.764 968.476 646.705 970.421 657.589C972.877 671.337 989.854 687.913 1003.73 690.698C1025.07 695.112 1047.22 693.481 1067.68 685.99C1079.66 681.651 1090.59 675.619 1096.36 662.996C1106.44 640.947 1109.45 617.71 1109.14 593.78C1108.85 571.859 1107.52 570.38 1084.84 570.29C1070.75 570.234 1056.66 570.251 1042.56 570.267C1023.03 570.29 1003.49 570.313 983.955 570.142C958.981 569.924 934.008 569.604 909.035 569.283L909.034 569.283C879.978 568.909 850.921 568.536 821.864 568.325C818.382 568.3 814.788 567.962 811.177 567.623C800.435 566.615 789.534 565.591 780.937 572.725C771.995 580.143 763.102 580.12 753.534 580.095H753.533C752.385 580.092 751.227 580.089 750.058 580.099C747.558 580.12 745.094 579.606 742.603 579.086C738.399 578.209 734.118 577.316 729.458 578.953C730.779 593.769 734.15 606.719 751.399 610.178C757.747 611.448 761.123 615.009 760.352 623.971H760.356ZM684.546 570.56C693.39 569.411 701.56 568.35 704.44 581.114H704.436C705.954 585.856 707.095 588.843 708.496 592.514L708.515 592.562C695.509 589.793 685.342 584.841 680.387 571.051C681.778 570.92 683.17 570.739 684.546 570.56Z" fill="black"/>
<path d="M896.905 588.754C896.231 582.754 900.033 581.42 903.921 581.408C922.994 581.35 942.074 581.424 961.138 581.922C965.486 581.942 969.579 583.982 972.214 587.442C965.312 595.5 918.64 596.826 896.905 588.754Z" fill="black"/>
<path d="M881.481 555.642C885.824 561.184 895.928 563.762 889.832 572.363C883.97 580.634 874.241 581.063 865.504 578.831C856.024 576.531 846.903 572.942 838.396 568.165C826.268 561.104 815.276 562.005 803.558 568.415C797.049 571.975 787.545 578.15 783.183 570.25C778.1 561.05 790.275 558.896 795.968 554.89C814.083 542.142 834.807 540.842 855.914 542.673C865.581 543.512 872.72 550.389 881.481 555.642Z" fill="black"/>
<path d="M1005.23 565.172C1021.09 557.767 1035.92 550.415 1053.38 552.545C1064.86 553.791 1075.5 559.169 1083.31 567.679C1086.28 570.841 1088.5 575.208 1084.8 579.068C1081.19 582.84 1076.18 583.626 1072.32 579.497C1062.36 568.844 1052.01 571.15 1041.62 578.148C1032.58 584.231 1022.03 583.588 1012.18 584.462C1001.45 585.414 998.781 577.858 1005.23 565.172Z" fill="black"/>
</svg>
